<?xml version="1.0" encoding="utf-8"?>
<!-- Generator: Adobe Illustrator 17.1.0, SVG Export Plug-In . SVG Version: 6.00 Build 0)  -->
<!DOCTYPE svg PUBLIC "-//W3C//DTD SVG 1.1//EN" "http://www.w3.org/Graphics/SVG/1.1/DTD/svg11.dtd">
<svg version="1.1" id="Ebene_1" xmlns="http://www.w3.org/2000/svg" xmlns:xlink="http://www.w3.org/1999/xlink" x="0px" y="0px"
	 viewBox="0 0 573.4 95.6" enable-background="new 0 0 573.4 95.6" xml:space="preserve">
<path fill="#FFFFFF" d="M40,61.8c0-1.1-0.5-2.1-1.3-2.9L9.9,33L38.7,7c0.4-0.4,0.7-0.8,0.9-1.3L39.8,5c0.4-1.3,0.1-2.7-0.8-3.7
	C38.2,0.5,37.1,0,36,0c-1,0-2,0.4-2.7,1L1.3,30C0.5,30.7,0,31.7,0,32.8l0,0.3l0,0.1l0,0.1c0,1.1,0.5,2.1,1.3,2.8l28.8,26L1.3,88
	c-0.4,0.4-0.7,0.8-0.9,1.3L0.2,90c-0.4,1.3-0.1,2.7,0.8,3.7C1.8,94.6,2.9,95,4,95c1,0,2-0.4,2.7-1l32.1-29c0.8-0.7,1.3-1.8,1.3-2.8
	l0-0.3l0-0.1L40,61.8z"/>
<g>
	<path fill="#FFFFFF" d="M211.7,5.6c0-0.1,0-0.2,0-0.3c0-0.1-0.1-0.3-0.1-0.4c0-0.1-0.1-0.2-0.1-0.3c0-0.1-0.1-0.2-0.2-0.4
		c-0.1-0.1-0.1-0.2-0.2-0.3c-0.1-0.1-0.2-0.2-0.3-0.3c-0.1-0.1-0.1-0.1-0.2-0.2c0,0,0,0-0.1,0c-0.1-0.1-0.2-0.2-0.4-0.3
		c-0.1-0.1-0.1-0.1-0.2-0.2c-0.2-0.1-0.4-0.2-0.5-0.3c0,0-0.1,0-0.1-0.1c-0.5-0.2-1-0.3-1.5-0.3h-46.3c-1.8,0-3.4,1.3-3.7,3
		c-0.1,0.2-0.1,0.5-0.1,0.8v85.9c0,2.1,1.7,3.8,3.8,3.8c2.1,0,3.8-1.7,3.8-3.8V9.7h32.8l-16.1,14.9c-0.8,0.7-1.2,1.7-1.2,2.8
		c0,1.1,0.4,2.1,1.2,2.8l20.2,18.7l-20.2,18.7c-0.8,0.7-1.2,1.7-1.2,2.8c0,1.1,0.4,2.1,1.2,2.8l23.3,21.5c0.7,0.7,1.6,1,2.6,1
		c1.1,0,2.1-0.4,2.8-1.2c1.4-1.5,1.3-4-0.2-5.4l-20.2-18.7l20.2-18.7c0.8-0.7,1.2-1.7,1.2-2.8c0-1.1-0.4-2.1-1.2-2.8l-20.2-18.7
		l20.2-18.7c0,0,0,0,0.1-0.1c0.1-0.1,0.1-0.2,0.2-0.3c0.1-0.1,0.2-0.2,0.3-0.3c0.1-0.1,0.1-0.2,0.2-0.3c0.1-0.1,0.1-0.2,0.2-0.4
		c0-0.1,0.1-0.2,0.1-0.4c0-0.1,0.1-0.2,0.1-0.3c0-0.1,0-0.3,0.1-0.4c0-0.1,0-0.2,0-0.4c0,0,0-0.1,0-0.1
		C211.8,5.8,211.7,5.7,211.7,5.6z"/>
	<path fill="#FFFFFF" d="M123.5,9.6c2.1,0,3.7-1.7,3.7-3.7c0-2.1-1.7-3.7-3.7-3.7H78c-1.8,0-3.3,1.3-3.7,3c-0.1,0.2-0.1,0.5-0.1,0.8
		v84.4c0,2.1,1.7,3.7,3.7,3.7h45.5c2.1,0,3.7-1.7,3.7-3.7c0-2.1-1.7-3.7-3.7-3.7H81.7V9.6H123.5z"/>
	<path fill="#FFFFFF" d="M344.6,2.1c-2.1,0-3.8,1.7-3.8,3.8V91c0,2.1,1.7,3.8,3.8,3.8s3.8-1.7,3.8-3.8V5.8
		C348.4,3.8,346.7,2.1,344.6,2.1z"/>
	<path fill="#FFFFFF" d="M276.5,4.3c-0.6-1.4-2-2.3-3.5-2.3c-1.5,0-2.9,0.9-3.5,2.3l-37.4,85.2c-0.4,0.9-0.4,1.9-0.1,2.9
		s1.1,1.7,2,2.1c0.5,0.2,1,0.3,1.5,0.3c1.5,0,2.9-0.9,3.5-2.3l33.9-77.3L307,92.5c0.6,1.4,2,2.3,3.5,2.3c0.5,0,1-0.1,1.5-0.3
		c1.9-0.8,2.8-3.1,1.9-5L276.5,4.3z"/>
	<path fill="#FFFFFF" d="M475.8,88.3l-20.9-23V5.8c0-2.1-1.7-3.8-3.8-3.8s-3.8,1.7-3.8,3.8V57L398.7,3.3c-1-1.1-2.7-1.5-4.2-1
		c-1.4,0.6-2.4,2-2.4,3.5V91c0,2.1,1.7,3.8,3.8,3.8c2.1,0,3.8-1.7,3.8-3.8V15.6l47.7,52.6V91c0,2.1,1.7,3.8,3.8,3.8l21.7,0
		c0.1,0,0.2,0,0.3,0c0.5,0,0.9-0.1,1.4-0.3c1.4-0.6,2.4-2,2.4-3.5c0-1-0.4-2-1.1-2.7C475.8,88.3,475.8,88.3,475.8,88.3z M464.6,87.2
		h-9.7V76.5L464.6,87.2z M475.4,88.6L475.4,88.6L475.4,88.6L475.4,88.6z"/>
	<path fill="#FFFFFF" d="M573.1,89.5L535.7,4.3c-0.6-1.4-2-2.3-3.5-2.3c-1.5,0-2.9,0.9-3.5,2.3l-37.4,85.2c-0.4,0.9-0.4,1.9-0.1,2.9
		c0.4,0.9,1.1,1.7,2,2.1c0.5,0.2,1,0.3,1.5,0.3c1.5,0,2.9-0.9,3.5-2.3l33.9-77.3l33.9,77.3c0.6,1.4,2,2.3,3.5,2.3
		c0.5,0,1-0.1,1.5-0.3c0.9-0.4,1.6-1.1,2-2.1C573.5,91.5,573.5,90.4,573.1,89.5z"/>
</g>
</svg>
